<?xml version="1.0" standalone="no"?>
<!DOCTYPE svg PUBLIC "-//W3C//DTD SVG 20010904//EN"
 "http://www.w3.org/TR/2001/REC-SVG-20010904/DTD/svg10.dtd">
<svg version="1.0" xmlns="http://www.w3.org/2000/svg"
 width="300.000000pt" height="300.000000pt" viewBox="0 0 300.000000 300.000000"
 preserveAspectRatio="xMidYMid meet">
<metadata>
Created by potrace 1.10, written by Peter Selinger 2001-2011
</metadata>
<g transform="translate(0.000000,300.000000) scale(0.100000,-0.100000)"
fill="#000000" stroke="none">
<path d="M1300 2885 c-150 -25 -274 -67 -420 -141 -132 -67 -218 -132 -345
-259 -166 -166 -262 -319 -334 -535 -28 -83 -39 -133 -68 -320 -13 -79 -6
-205 18 -349 22 -135 22 -136 33 -166 48 -132 65 -172 103 -245 68 -128 137
-222 237 -324 107 -108 222 -197 326 -251 41 -21 78 -43 82 -49 4 -6 8 -8 8
-3 0 4 13 1 28 -7 44 -23 198 -72 287 -92 61 -14 122 -18 260 -18 189 1 294
16 440 66 103 35 262 115 348 175 84 59 271 237 324 308 92 125 185 312 232
465 60 199 54 581 -14 779 -13 39 -22 71 -20 71 2 0 -12 31 -31 70 -18 38 -34
72 -34 75 0 3 -25 46 -56 96 -129 208 -294 368 -509 492 -128 74 -282 129
-455 163 -92 17 -335 17 -440 -1z m476 -34 c526 -102 937 -496 1071 -1026 34
-135 43 -374 19 -522 -43 -273 -168 -528 -358 -728 -182 -192 -395 -318 -658
-387 -153 -40 -390 -50 -551 -23 -563 94 -1001 515 -1120 1078 -31 145 -31
389 -1 534 60 277 182 504 376 698 224 223 496 355 812 395 99 13 294 4 410
-19z"/>
<path d="M1415 2764 c-141 -19 -192 -30 -275 -56 -184 -59 -344 -154 -484
-288 -195 -187 -320 -414 -373 -678 -23 -117 -23 -356 1 -467 57 -263 166
-467 350 -650 243 -242 541 -365 885 -365 148 0 271 19 396 62 514 175 855
649 855 1187 0 683 -532 1233 -1214 1256 -61 2 -124 2 -141 -1z m309 -40 c315
-55 587 -220 781 -473 61 -81 156 -267 189 -374 76 -243 67 -571 -21 -787 -3
-8 -7 -20 -9 -27 -4 -20 -92 -197 -109 -218 -8 -11 -37 -49 -64 -85 -102 -138
-268 -274 -424 -349 -72 -35 -121 -52 -282 -101 -52 -16 -184 -30 -273 -30
-141 1 -284 28 -432 83 -53 19 -210 95 -220 107 -3 3 -31 23 -63 44 -75 50
-209 182 -272 266 -60 80 -143 242 -178 347 -37 110 -52 226 -52 393 1 225 22
321 115 525 155 341 497 605 875 674 33 6 69 13 80 15 41 9 291 2 359 -10z"/>
<path d="M1032 2033 c-51 -3 -65 -8 -77 -26 -7 -12 -50 -110 -95 -217 -44
-107 -87 -208 -94 -225 -8 -16 -44 -104 -81 -194 -37 -90 -71 -171 -76 -180
-5 -9 -23 -51 -39 -95 -17 -43 -37 -91 -46 -107 -12 -24 -12 -32 -2 -49 12
-19 21 -20 107 -18 93 3 95 3 111 33 9 17 27 59 40 95 43 120 16 110 280 108
127 -1 234 -5 238 -8 4 -3 23 -45 42 -95 54 -143 46 -136 158 -133 73 2 97 7
105 19 9 14 -23 111 -78 234 -7 17 -25 59 -40 95 -42 102 -182 443 -232 565
-49 120 -79 181 -90 188 -16 9 -70 13 -131 10z m222 -266 c55 -133 155 -374
221 -534 l122 -293 -93 0 -92 0 -48 120 -48 120 -255 0 -256 0 -46 -118 -47
-117 -90 -3 -91 -3 16 38 c295 707 423 1016 423 1023 0 6 40 10 93 10 l92 0
99 -243z"/>
<path d="M965 1582 c-49 -125 -91 -230 -93 -234 -2 -5 83 -8 188 -8 105 0 190
4 188 8 -1 4 -43 110 -93 234 -49 125 -92 227 -95 227 -3 0 -45 -102 -95 -227z
m105 146 c0 -7 6 -24 13 -38 7 -14 28 -63 46 -110 18 -47 41 -103 51 -125 9
-22 21 -50 24 -62 l7 -23 -150 0 c-83 0 -151 2 -151 4 0 15 24 66 32 66 5 0 7
4 4 9 -6 9 10 54 50 136 13 28 26 62 29 75 2 13 9 28 15 34 5 5 10 18 10 28 0
10 5 18 10 18 6 0 10 -6 10 -12z"/>
<path d="M1826 2032 c-80 -2 -102 -6 -112 -20 -20 -25 -19 -1049 0 -1074 11
-15 29 -18 98 -18 52 0 89 5 96 12 8 8 12 58 12 160 l0 148 134 0 c156 0 216
10 291 46 188 92 262 340 164 548 -44 95 -163 178 -273 191 -61 7 -273 11
-410 7z m485 -50 c157 -62 238 -220 209 -406 -14 -90 -38 -143 -89 -199 -79
-86 -193 -116 -418 -113 l-113 2 0 -163 0 -163 -85 0 -85 0 0 536 0 536 263
-4 c243 -4 266 -6 318 -26z"/>
<path d="M1900 1641 l0 -211 143 0 c166 0 204 9 258 57 47 43 63 94 56 181 -6
77 -39 125 -106 155 -39 18 -71 22 -198 25 l-153 4 0 -211z m321 167 c58 -19
88 -46 100 -91 34 -118 5 -206 -79 -244 -28 -12 -70 -16 -177 -17 l-140 -1 -3
183 -2 182 133 0 c75 0 149 -5 168 -12z"/>
</g>
</svg>
